<svg width="336" height="111" viewBox="0 0 336 111" fill="none" xmlns="http://www.w3.org/2000/svg">
<path fill-rule="evenodd" clip-rule="evenodd" d="M336 59H0V58H336V59Z" fill="#C7B2EF"/>
<path fill-rule="evenodd" clip-rule="evenodd" d="M285.6 39.5C279.706 39.5 274.582 43.0755 272.359 48.199L272.163 48.6511L271.708 48.4615C270.566 47.986 269.232 47.7 267.9 47.7C262.176 47.7 257.5 52.3761 257.5 58.1V59H256.5V58.1C256.5 51.8239 261.624 46.7 267.9 46.7C269.196 46.7 270.489 46.9445 271.64 47.3623C274.113 42.1214 279.464 38.5 285.6 38.5C292.198 38.5 297.826 42.6571 300.058 48.444C301.804 47.3897 303.82 46.7 306.1 46.7C312.376 46.7 317.5 51.8239 317.5 58.1V59H316.5V58.1C316.5 52.3761 311.824 47.7 306.1 47.7C303.817 47.7 301.812 48.4596 300.077 49.616L299.536 49.9772L299.326 49.3605C297.393 43.6556 291.977 39.5 285.6 39.5Z" fill="#C7B2EF"/>
<path fill-rule="evenodd" clip-rule="evenodd" d="M59.04 31.5C50.706 31.5 43.4621 36.5555 40.3187 43.799L40.1225 44.251L39.6677 44.0615C38.0464 43.386 36.1516 42.98 34.26 42.98C26.1361 42.98 19.5 49.6161 19.5 57.74V59H18.5V57.74C18.5 49.0639 25.5839 41.98 34.26 41.98C36.1146 41.98 37.9666 42.3428 39.5993 42.9587C42.9949 35.5994 50.4648 30.5 59.04 30.5C68.2768 30.5 76.1437 36.3738 79.1796 44.5183C81.6453 42.9871 84.5008 41.98 87.74 41.98C96.4161 41.98 103.5 49.0639 103.5 57.74V59H102.5V57.74C102.5 49.6161 95.8639 42.98 87.74 42.98C84.4971 42.98 81.652 44.0596 79.1973 45.696L78.6555 46.0572L78.4465 45.4405C75.7126 37.3756 68.0575 31.5 59.04 31.5Z" fill="#C7B2EF"/>
<path fill-rule="evenodd" clip-rule="evenodd" d="M299.1 29.5C293.342 29.5 288.555 33.6252 287.694 39.078L286.706 38.922C287.645 32.9748 292.858 28.5 299.1 28.5C305.976 28.5 311.6 34.1239 311.6 41C311.6 43.3892 310.976 45.5799 309.827 47.4607L308.973 46.9393C310.024 45.2201 310.6 43.2108 310.6 41C310.6 34.6761 305.424 29.5 299.1 29.5Z" fill="#C7B2EF"/>
<path fill-rule="evenodd" clip-rule="evenodd" d="M298.6 23V21H299.6V23H298.6Z" fill="#C7B2EF"/>
<path fill-rule="evenodd" clip-rule="evenodd" d="M311.446 27.9468L312.846 26.5468L313.554 27.2539L312.154 28.6539L311.446 27.9468Z" fill="#C7B2EF"/>
<path fill-rule="evenodd" clip-rule="evenodd" d="M317.1 40.5H319.1V41.5H317.1V40.5Z" fill="#C7B2EF"/>
<path fill-rule="evenodd" clip-rule="evenodd" d="M286.046 28.6539L284.646 27.2539L285.354 26.5468L286.754 27.9468L286.046 28.6539Z" fill="#C7B2EF"/>
<path d="M195.621 53.6921L190.615 48.817C192.558 46.4382 193.499 43.4189 193.245 40.3799C192.99 37.3409 191.559 34.5132 189.247 32.4781C186.934 30.4431 183.915 29.3555 180.811 29.4389C177.706 29.5223 174.752 30.7704 172.557 32.9266C170.361 35.0827 169.089 37.9831 169.005 41.0312C168.92 44.0793 170.027 47.0436 172.1 49.3144C174.172 51.5853 177.052 52.9901 180.147 53.2401C183.242 53.4901 186.317 52.5662 188.74 50.6584L193.705 55.5335C193.83 55.6577 193.98 55.7563 194.144 55.8235C194.309 55.8908 194.485 55.9254 194.663 55.9254C194.841 55.9254 195.017 55.8908 195.182 55.8235C195.346 55.7563 195.495 55.6577 195.621 55.5335C195.864 55.2865 196 54.9564 196 54.6128C196 54.2693 195.864 53.9391 195.621 53.6921ZM181.171 50.6584C179.303 50.6584 177.477 50.1145 175.924 49.0956C174.371 48.0766 173.16 46.6283 172.446 44.9338C171.731 43.2393 171.544 41.3747 171.908 39.5759C172.272 37.777 173.172 36.1247 174.493 34.8278C175.814 33.5309 177.496 32.6477 179.328 32.2898C181.161 31.932 183.059 32.1157 184.785 32.8175C186.511 33.5194 187.986 34.708 189.024 36.233C190.061 37.758 190.615 39.5509 190.615 41.385C190.615 43.8445 189.62 46.2032 187.849 47.9423C186.078 49.6814 183.676 50.6584 181.171 50.6584Z" fill="#C7B2EF"/>
<path fill-rule="evenodd" clip-rule="evenodd" d="M178 14.7172V20.6041C180.387 20.6041 182.676 21.5344 184.364 23.1904C185.613 24.416 186.457 25.9647 186.811 27.6363C185.024 26.8987 183.061 26.491 181 26.491C172.716 26.491 166 33.0801 166 41.2082C166 49.3363 172.716 55.9254 181 55.9254C182.457 55.9254 183.865 55.7217 185.196 55.3418C184.943 55.6723 184.665 55.9868 184.364 56.2825C182.676 57.9385 180.387 58.8689 178 58.8689H148C145.613 58.8689 143.324 57.9385 141.636 56.2825C139.948 54.6265 139 52.3805 139 50.0385V29.4344C139 27.0925 139.948 24.8464 141.636 23.1904C143.324 21.5344 145.613 20.6041 148 20.6041V14.7172C148 10.814 149.58 7.07058 152.393 4.31057C155.206 1.55056 159.022 0 163 0C166.978 0 170.794 1.55056 173.607 4.31057C176.42 7.07058 178 10.814 178 14.7172ZM156.636 8.47323C154.948 10.1292 154 12.3753 154 14.7172V20.6041H172V14.7172C172 12.3753 171.052 10.1292 169.364 8.47323C167.676 6.81722 165.387 5.88689 163 5.88689C160.613 5.88689 158.324 6.81722 156.636 8.47323Z" fill="#C7B2EF"/>
<path d="M129.725 101.835H131.037C130.969 102.464 130.789 103.027 130.497 103.523C130.205 104.02 129.793 104.414 129.26 104.706C128.727 104.993 128.061 105.137 127.264 105.137C126.68 105.137 126.149 105.027 125.671 104.809C125.197 104.59 124.789 104.28 124.447 103.879C124.105 103.473 123.841 102.988 123.654 102.423C123.472 101.853 123.381 101.22 123.381 100.522V99.5312C123.381 98.834 123.472 98.2028 123.654 97.6377C123.841 97.068 124.108 96.5804 124.454 96.1748C124.805 95.7692 125.227 95.457 125.719 95.2383C126.211 95.0195 126.765 94.9102 127.38 94.9102C128.132 94.9102 128.768 95.0514 129.287 95.334C129.807 95.6165 130.21 96.0085 130.497 96.5098C130.789 97.0065 130.969 97.583 131.037 98.2393H129.725C129.661 97.7744 129.542 97.3757 129.369 97.043C129.196 96.7057 128.95 96.446 128.631 96.2637C128.312 96.0814 127.895 95.9902 127.38 95.9902C126.938 95.9902 126.548 96.0745 126.211 96.2432C125.878 96.4118 125.598 96.651 125.37 96.9609C125.147 97.2708 124.978 97.6423 124.864 98.0752C124.75 98.5081 124.693 98.9889 124.693 99.5176V100.522C124.693 101.01 124.743 101.468 124.844 101.896C124.949 102.325 125.106 102.701 125.315 103.024C125.525 103.348 125.792 103.603 126.115 103.79C126.439 103.972 126.822 104.063 127.264 104.063C127.824 104.063 128.271 103.975 128.604 103.797C128.936 103.619 129.187 103.364 129.355 103.031C129.529 102.699 129.652 102.3 129.725 101.835ZM132.309 101.384V101.227C132.309 100.693 132.386 100.199 132.541 99.7432C132.696 99.2829 132.919 98.8841 133.211 98.5469C133.503 98.2051 133.856 97.9408 134.271 97.7539C134.685 97.5625 135.15 97.4668 135.665 97.4668C136.185 97.4668 136.652 97.5625 137.066 97.7539C137.486 97.9408 137.841 98.2051 138.133 98.5469C138.429 98.8841 138.655 99.2829 138.81 99.7432C138.965 100.199 139.042 100.693 139.042 101.227V101.384C139.042 101.917 138.965 102.411 138.81 102.867C138.655 103.323 138.429 103.722 138.133 104.063C137.841 104.401 137.488 104.665 137.073 104.856C136.663 105.043 136.198 105.137 135.679 105.137C135.159 105.137 134.692 105.043 134.277 104.856C133.863 104.665 133.507 104.401 133.211 104.063C132.919 103.722 132.696 103.323 132.541 102.867C132.386 102.411 132.309 101.917 132.309 101.384ZM133.573 101.227V101.384C133.573 101.753 133.617 102.102 133.703 102.43C133.79 102.753 133.92 103.04 134.093 103.291C134.271 103.542 134.492 103.74 134.756 103.886C135.02 104.027 135.328 104.098 135.679 104.098C136.025 104.098 136.328 104.027 136.588 103.886C136.852 103.74 137.071 103.542 137.244 103.291C137.417 103.04 137.547 102.753 137.634 102.43C137.725 102.102 137.771 101.753 137.771 101.384V101.227C137.771 100.862 137.725 100.518 137.634 100.194C137.547 99.8662 137.415 99.5768 137.237 99.3262C137.064 99.071 136.845 98.8704 136.581 98.7246C136.321 98.5788 136.016 98.5059 135.665 98.5059C135.319 98.5059 135.013 98.5788 134.749 98.7246C134.489 98.8704 134.271 99.071 134.093 99.3262C133.92 99.5768 133.79 99.8662 133.703 100.194C133.617 100.518 133.573 100.862 133.573 101.227ZM141.886 99.0732V105H140.614V97.6035H141.817L141.886 99.0732ZM141.626 101.021L141.038 101.001C141.043 100.495 141.109 100.028 141.236 99.5996C141.364 99.1667 141.553 98.7907 141.804 98.4717C142.054 98.1527 142.367 97.9066 142.74 97.7334C143.114 97.5557 143.547 97.4668 144.039 97.4668C144.385 97.4668 144.704 97.5169 144.996 97.6172C145.288 97.7129 145.541 97.8656 145.755 98.0752C145.969 98.2848 146.135 98.5537 146.254 98.8818C146.372 99.21 146.432 99.6064 146.432 100.071V105H145.167V100.133C145.167 99.7454 145.101 99.4355 144.969 99.2031C144.841 98.9707 144.659 98.8021 144.422 98.6973C144.185 98.5879 143.907 98.5332 143.588 98.5332C143.214 98.5332 142.902 98.5993 142.651 98.7314C142.401 98.8636 142.2 99.0459 142.05 99.2783C141.899 99.5107 141.79 99.7773 141.722 100.078C141.658 100.374 141.626 100.689 141.626 101.021ZM146.418 100.324L145.57 100.584C145.575 100.178 145.641 99.7887 145.769 99.415C145.901 99.0413 146.09 98.7087 146.336 98.417C146.587 98.1253 146.894 97.8952 147.259 97.7266C147.623 97.5534 148.04 97.4668 148.51 97.4668C148.906 97.4668 149.257 97.5192 149.562 97.624C149.872 97.7288 150.132 97.8906 150.342 98.1094C150.556 98.3236 150.718 98.5993 150.827 98.9365C150.937 99.2738 150.991 99.6748 150.991 100.14V105H149.72V100.126C149.72 99.7113 149.654 99.39 149.521 99.1621C149.394 98.9297 149.212 98.7679 148.975 98.6768C148.742 98.5811 148.464 98.5332 148.141 98.5332C147.863 98.5332 147.617 98.5811 147.402 98.6768C147.188 98.7725 147.008 98.9046 146.862 99.0732C146.716 99.2373 146.605 99.4264 146.527 99.6406C146.454 99.8548 146.418 100.083 146.418 100.324ZM154.279 97.6035V105H153.008V97.6035H154.279ZM152.912 95.6416C152.912 95.4365 152.974 95.2633 153.097 95.1221C153.224 94.9808 153.411 94.9102 153.657 94.9102C153.899 94.9102 154.083 94.9808 154.211 95.1221C154.343 95.2633 154.409 95.4365 154.409 95.6416C154.409 95.8376 154.343 96.0062 154.211 96.1475C154.083 96.2842 153.899 96.3525 153.657 96.3525C153.411 96.3525 153.224 96.2842 153.097 96.1475C152.974 96.0062 152.912 95.8376 152.912 95.6416ZM157.574 99.1826V105H156.31V97.6035H157.506L157.574 99.1826ZM157.273 101.021L156.747 101.001C156.752 100.495 156.827 100.028 156.973 99.5996C157.118 99.1667 157.324 98.7907 157.588 98.4717C157.852 98.1527 158.167 97.9066 158.531 97.7334C158.9 97.5557 159.308 97.4668 159.755 97.4668C160.119 97.4668 160.448 97.5169 160.739 97.6172C161.031 97.7129 161.279 97.8678 161.484 98.082C161.694 98.2962 161.854 98.5742 161.963 98.916C162.072 99.2533 162.127 99.6657 162.127 100.153V105H160.855V100.14C160.855 99.7523 160.799 99.4424 160.685 99.21C160.571 98.973 160.404 98.8021 160.186 98.6973C159.967 98.5879 159.698 98.5332 159.379 98.5332C159.064 98.5332 158.777 98.5993 158.518 98.7314C158.262 98.8636 158.041 99.0459 157.854 99.2783C157.672 99.5107 157.529 99.7773 157.424 100.078C157.324 100.374 157.273 100.689 157.273 101.021ZM168.84 97.6035H169.988V104.843C169.988 105.494 169.856 106.05 169.592 106.511C169.327 106.971 168.958 107.32 168.484 107.557C168.015 107.798 167.473 107.919 166.857 107.919C166.602 107.919 166.301 107.878 165.955 107.796C165.613 107.718 165.276 107.584 164.943 107.393C164.615 107.206 164.34 106.953 164.116 106.634L164.779 105.882C165.089 106.256 165.413 106.515 165.75 106.661C166.092 106.807 166.429 106.88 166.762 106.88C167.163 106.88 167.509 106.805 167.801 106.654C168.092 106.504 168.318 106.281 168.478 105.984C168.642 105.693 168.724 105.333 168.724 104.904V99.2305L168.84 97.6035ZM163.747 101.384V101.24C163.747 100.675 163.813 100.162 163.945 99.7021C164.082 99.2373 164.276 98.8385 164.526 98.5059C164.782 98.1732 165.089 97.918 165.449 97.7402C165.809 97.5579 166.215 97.4668 166.666 97.4668C167.131 97.4668 167.536 97.5488 167.883 97.7129C168.234 97.8724 168.53 98.1071 168.771 98.417C169.018 98.7223 169.211 99.0915 169.353 99.5244C169.494 99.9574 169.592 100.447 169.646 100.994V101.623C169.596 102.165 169.498 102.653 169.353 103.086C169.211 103.519 169.018 103.888 168.771 104.193C168.53 104.499 168.234 104.733 167.883 104.897C167.532 105.057 167.122 105.137 166.652 105.137C166.21 105.137 165.809 105.043 165.449 104.856C165.094 104.67 164.788 104.408 164.533 104.07C164.278 103.733 164.082 103.337 163.945 102.881C163.813 102.421 163.747 101.922 163.747 101.384ZM165.012 101.24V101.384C165.012 101.753 165.048 102.099 165.121 102.423C165.199 102.746 165.315 103.031 165.47 103.277C165.629 103.523 165.832 103.717 166.078 103.858C166.324 103.995 166.618 104.063 166.96 104.063C167.379 104.063 167.726 103.975 167.999 103.797C168.272 103.619 168.489 103.384 168.648 103.093C168.812 102.801 168.94 102.484 169.031 102.143V100.495C168.981 100.244 168.904 100.003 168.799 99.7705C168.699 99.5335 168.566 99.3239 168.402 99.1416C168.243 98.9548 168.045 98.8066 167.808 98.6973C167.571 98.5879 167.293 98.5332 166.974 98.5332C166.627 98.5332 166.329 98.6061 166.078 98.752C165.832 98.8932 165.629 99.0892 165.47 99.3398C165.315 99.5859 165.199 99.873 165.121 100.201C165.048 100.525 165.012 100.871 165.012 101.24ZM179.688 103.038C179.688 102.856 179.647 102.687 179.565 102.532C179.488 102.373 179.326 102.229 179.08 102.102C178.839 101.969 178.474 101.855 177.986 101.76C177.576 101.673 177.205 101.571 176.872 101.452C176.544 101.334 176.264 101.19 176.031 101.021C175.803 100.853 175.628 100.655 175.505 100.427C175.382 100.199 175.32 99.9323 175.32 99.627C175.32 99.3353 175.384 99.0596 175.512 98.7998C175.644 98.54 175.828 98.3099 176.065 98.1094C176.307 97.9089 176.596 97.7516 176.934 97.6377C177.271 97.5238 177.647 97.4668 178.062 97.4668C178.654 97.4668 179.16 97.5716 179.579 97.7812C179.998 97.9909 180.32 98.2712 180.543 98.6221C180.766 98.9684 180.878 99.3535 180.878 99.7773H179.613C179.613 99.5723 179.552 99.374 179.429 99.1826C179.31 98.9867 179.135 98.8249 178.902 98.6973C178.674 98.5697 178.394 98.5059 178.062 98.5059C177.711 98.5059 177.426 98.5605 177.207 98.6699C176.993 98.7747 176.836 98.9092 176.735 99.0732C176.64 99.2373 176.592 99.4105 176.592 99.5928C176.592 99.7295 176.615 99.8525 176.66 99.9619C176.71 100.067 176.797 100.165 176.92 100.256C177.043 100.342 177.216 100.424 177.439 100.502C177.663 100.579 177.948 100.657 178.294 100.734C178.9 100.871 179.399 101.035 179.791 101.227C180.183 101.418 180.475 101.653 180.666 101.931C180.857 102.209 180.953 102.546 180.953 102.942C180.953 103.266 180.885 103.562 180.748 103.831C180.616 104.1 180.422 104.332 180.167 104.528C179.916 104.72 179.616 104.87 179.265 104.979C178.918 105.084 178.529 105.137 178.096 105.137C177.444 105.137 176.893 105.021 176.441 104.788C175.99 104.556 175.648 104.255 175.416 103.886C175.184 103.517 175.067 103.127 175.067 102.717H176.339C176.357 103.063 176.457 103.339 176.64 103.544C176.822 103.744 177.045 103.888 177.31 103.975C177.574 104.057 177.836 104.098 178.096 104.098C178.442 104.098 178.731 104.052 178.964 103.961C179.201 103.87 179.381 103.744 179.504 103.585C179.627 103.425 179.688 103.243 179.688 103.038ZM182.279 101.384V101.227C182.279 100.693 182.357 100.199 182.512 99.7432C182.667 99.2829 182.89 98.8841 183.182 98.5469C183.473 98.2051 183.826 97.9408 184.241 97.7539C184.656 97.5625 185.121 97.4668 185.636 97.4668C186.155 97.4668 186.622 97.5625 187.037 97.7539C187.456 97.9408 187.812 98.2051 188.104 98.5469C188.4 98.8841 188.625 99.2829 188.78 99.7432C188.935 100.199 189.013 100.693 189.013 101.227V101.384C189.013 101.917 188.935 102.411 188.78 102.867C188.625 103.323 188.4 103.722 188.104 104.063C187.812 104.401 187.459 104.665 187.044 104.856C186.634 105.043 186.169 105.137 185.649 105.137C185.13 105.137 184.663 105.043 184.248 104.856C183.833 104.665 183.478 104.401 183.182 104.063C182.89 103.722 182.667 103.323 182.512 102.867C182.357 102.411 182.279 101.917 182.279 101.384ZM183.544 101.227V101.384C183.544 101.753 183.587 102.102 183.674 102.43C183.76 102.753 183.89 103.04 184.063 103.291C184.241 103.542 184.462 103.74 184.727 103.886C184.991 104.027 185.299 104.098 185.649 104.098C185.996 104.098 186.299 104.027 186.559 103.886C186.823 103.74 187.042 103.542 187.215 103.291C187.388 103.04 187.518 102.753 187.604 102.43C187.696 102.102 187.741 101.753 187.741 101.384V101.227C187.741 100.862 187.696 100.518 187.604 100.194C187.518 99.8662 187.386 99.5768 187.208 99.3262C187.035 99.071 186.816 98.8704 186.552 98.7246C186.292 98.5788 185.987 98.5059 185.636 98.5059C185.289 98.5059 184.984 98.5788 184.72 98.7246C184.46 98.8704 184.241 99.071 184.063 99.3262C183.89 99.5768 183.76 99.8662 183.674 100.194C183.587 100.518 183.544 100.862 183.544 101.227ZM190.264 101.384V101.227C190.264 100.693 190.341 100.199 190.496 99.7432C190.651 99.2829 190.874 98.8841 191.166 98.5469C191.458 98.2051 191.811 97.9408 192.226 97.7539C192.64 97.5625 193.105 97.4668 193.62 97.4668C194.14 97.4668 194.607 97.5625 195.021 97.7539C195.441 97.9408 195.796 98.2051 196.088 98.5469C196.384 98.8841 196.61 99.2829 196.765 99.7432C196.92 100.199 196.997 100.693 196.997 101.227V101.384C196.997 101.917 196.92 102.411 196.765 102.867C196.61 103.323 196.384 103.722 196.088 104.063C195.796 104.401 195.443 104.665 195.028 104.856C194.618 105.043 194.153 105.137 193.634 105.137C193.114 105.137 192.647 105.043 192.232 104.856C191.818 104.665 191.462 104.401 191.166 104.063C190.874 103.722 190.651 103.323 190.496 102.867C190.341 102.411 190.264 101.917 190.264 101.384ZM191.528 101.227V101.384C191.528 101.753 191.572 102.102 191.658 102.43C191.745 102.753 191.875 103.04 192.048 103.291C192.226 103.542 192.447 103.74 192.711 103.886C192.975 104.027 193.283 104.098 193.634 104.098C193.98 104.098 194.283 104.027 194.543 103.886C194.807 103.74 195.026 103.542 195.199 103.291C195.372 103.04 195.502 102.753 195.589 102.43C195.68 102.102 195.726 101.753 195.726 101.384V101.227C195.726 100.862 195.68 100.518 195.589 100.194C195.502 99.8662 195.37 99.5768 195.192 99.3262C195.019 99.071 194.8 98.8704 194.536 98.7246C194.276 98.5788 193.971 98.5059 193.62 98.5059C193.274 98.5059 192.968 98.5788 192.704 98.7246C192.444 98.8704 192.226 99.071 192.048 99.3262C191.875 99.5768 191.745 99.8662 191.658 100.194C191.572 100.518 191.528 100.862 191.528 101.227ZM199.848 99.1826V105H198.583V97.6035H199.779L199.848 99.1826ZM199.547 101.021L199.021 101.001C199.025 100.495 199.1 100.028 199.246 99.5996C199.392 99.1667 199.597 98.7907 199.861 98.4717C200.126 98.1527 200.44 97.9066 200.805 97.7334C201.174 97.5557 201.582 97.4668 202.028 97.4668C202.393 97.4668 202.721 97.5169 203.013 97.6172C203.304 97.7129 203.553 97.8678 203.758 98.082C203.967 98.2962 204.127 98.5742 204.236 98.916C204.346 99.2533 204.4 99.6657 204.4 100.153V105H203.129V100.14C203.129 99.7523 203.072 99.4424 202.958 99.21C202.844 98.973 202.678 98.8021 202.459 98.6973C202.24 98.5879 201.971 98.5332 201.652 98.5332C201.338 98.5332 201.051 98.5993 200.791 98.7314C200.536 98.8636 200.315 99.0459 200.128 99.2783C199.946 99.5107 199.802 99.7773 199.697 100.078C199.597 100.374 199.547 100.689 199.547 101.021ZM211.298 95.0469L211.209 102.19H210.067L209.972 95.0469H211.298ZM209.931 104.364C209.931 104.159 209.992 103.986 210.115 103.845C210.243 103.703 210.43 103.633 210.676 103.633C210.917 103.633 211.102 103.703 211.229 103.845C211.362 103.986 211.428 104.159 211.428 104.364C211.428 104.56 211.362 104.729 211.229 104.87C211.102 105.011 210.917 105.082 210.676 105.082C210.43 105.082 210.243 105.011 210.115 104.87C209.992 104.729 209.931 104.56 209.931 104.364Z" fill="#C7B2EF"/>
</svg>
